A01_T0015_GRF_2plates.mot
version=1
nRows=78
nColumns=19
inDegrees=yes
endheader
time	ground_force_vx	ground_force_vy	ground_force_vz	ground_force_px	ground_force_py	ground_force_pz	1_ground_force_vx	1_ground_force_vy	1_ground_force_vz	1_ground_force_px	1_ground_force_py	1_ground_force_pz	ground_torque_x	ground_torque_y	ground_torque_z	1_ground_torque_x	1_ground_torque_y	1_ground_torque_z	
0.59979	181.33	931.01	67.237	-0.29862	0	0.26121	0	0	0	0	0	0	0	15.373	0	0	0	0
0.60021	181.68	930.75	67.365	-0.29854	0	0.26123	0	0	0	0	0	0	0	15.403	0	0	0	0
0.60063	182.16	929.95	67.317	-0.29844	0	0.26113	0	0	0	0	0	0	0	15.434	0	0	0	0
0.60104	182.4	929.33	67.166	-0.29837	0	0.26109	0	0	0	0	0	0	0	15.372	0	0	0	0
0.60146	182.68	928.36	67.339	-0.29819	0	0.26117	0	0	0	0	0	0	0	15.377	0	0	0	0
0.60188	183.25	927.74	67.379	-0.298	0	0.26116	0	0	0	0	0	0	0	15.385	0	0	0	0
0.60229	183.51	927.21	67.223	-0.2979	0	0.26114	0	0	0	0	0	0	0	15.446	0	0	0	0
0.60271	183.84	926.23	67.484	-0.29783	0	0.2612	0	0	0	0	0	0	0	15.428	0	0	0	0
0.60313	184.19	926.41	67.22	-0.29777	0	0.2612	0	0	0	0	0	0	0	15.446	0	0	0	0
0.60354	184.47	925.61	67.413	-0.29772	0	0.26112	0	0	0	0	0	0	0	15.481	0	0	0	0
0.60396	184.79	924.72	67.15	-0.29757	0	0.26125	0	0	0	0	0	0	0	15.502	0	0	0	0
0.60438	185.16	923.76	67.215	-0.29737	0	0.26121	0	0	0	0	0	0	0	15.458	0	0	0	0
0.60479	185.38	923.05	67.237	-0.29726	0	0.26123	0	0	0	0	0	0	0	15.437	0	0	0	0
0.60521	185.86	922.16	67.362	-0.29711	0	0.26116	0	0	0	0	0	0	0	15.506	0	0	0	0
0.60563	186.19	921.63	67.056	-0.29702	0	0.26117	0	0	0	0	0	0	0	15.493	0	0	0	0
0.60604	186.71	922.15	67.098	-0.29716	0	0.26125	0	0	0	0	0	0	0	15.502	0	0	0	0
0.60646	186.95	920.74	67.162	-0.29703	0	0.26124	0	0	0	0	0	0	0	15.519	0	0	0	0
0.60688	187.12	920.03	66.918	-0.29681	0	0.26121	0	0	0	0	0	0	0	15.567	0	0	0	0
0.60729	187.62	919.06	66.916	-0.29659	0	0.26126	0	0	0	0	0	0	0	15.554	0	0	0	0
0.60771	187.79	918	67.089	-0.29654	0	0.2612	0	0	0	0	0	0	0	15.579	0	0	0	0
0.60813	188.27	918.34	66.891	-0.29664	0	0.26131	0	0	0	0	0	0	0	15.597	0	0	0	0
0.60854	188.51	916.67	66.912	-0.29636	0	0.26127	0	0	0	0	0	0	0	15.588	0	0	0	0
0.60896	188.99	916.67	66.843	-0.2963	0	0.26129	0	0	0	0	0	0	0	15.601	0	0	0	0
0.60938	188.97	915.96	66.844	-0.2963	0	0.26134	0	0	0	0	0	0	0	15.605	0	0	0	0
0.6098	189.49	914.46	66.949	-0.29604	0	0.2613	0	0	0	0	0	0	0	15.627	0	0	0	0
0.61021	189.86	913.48	66.861	-0.29595	0	0.26142	0	0	0	0	0	0	0	15.644	0	0	0	0
0.61063	189.9	912.08	66.73	-0.29573	0	0.26143	0	0	0	0	0	0	0	15.635	0	0	0	0
0.61105	190.25	911.28	66.726	-0.29552	0	0.26144	0	0	0	0	0	0	0	15.67	0	0	0	0
0.61146	190.82	911.01	66.638	-0.29559	0	0.26142	0	0	0	0	0	0	0	15.648	0	0	0	0
0.61188	190.9	910.21	66.57	-0.29546	0	0.26139	0	0	0	0	0	0	0	15.687	0	0	0	0
0.6123	191.18	909.15	66.546	-0.29526	0	0.26135	0	0	0	0	0	0	0	15.691	0	0	0	0
0.61271	191.64	907.91	66.459	-0.29516	0	0.26143	0	0	0	0	0	0	0	15.673	0	0	0	0
0.61313	192.03	907.2	66.35	-0.29513	0	0.26146	0	0	0	0	0	0	0	15.66	0	0	0	0
0.61355	191.99	906.41	66.326	-0.29492	0	0.26146	0	0	0	0	0	0	0	15.695	0	0	0	0
0.61396	192.2	905.53	66.281	-0.29489	0	0.26145	0	0	0	0	0	0	0	15.708	0	0	0	0
0.61438	192.55	904.82	66.17	-0.29477	0	0.26144	0	0	0	0	0	0	0	15.703	0	0	0	0
0.6148	192.74	903.06	66.126	-0.29448	0	0.26153	0	0	0	0	0	0	0	15.712	0	0	0	0
0.61521	193.35	902.26	66.232	-0.29448	0	0.26154	0	0	0	0	0	0	0	15.742	0	0	0	0
0.61563	193.31	901.11	66.102	-0.2943	0	0.26157	0	0	0	0	0	0	0	15.711	0	0	0	0
0.61605	193.74	900.75	65.819	-0.29425	0	0.26165	0	0	0	0	0	0	0	15.689	0	0	0	0
0.61646	194.09	899.6	65.947	-0.29412	0	0.26154	0	0	0	0	0	0	0	15.702	0	0	0	0
0.61688	194.2	899.42	65.879	-0.29414	0	0.26158	0	0	0	0	0	0	0	15.746	0	0	0	0
0.6173	194.48	897.83	65.596	-0.29397	0	0.26166	0	0	0	0	0	0	0	15.741	0	0	0	0
0.61771	194.95	896.6	65.592	-0.29377	0	0.26159	0	0	0	0	0	0	0	15.763	0	0	0	0
0.61813	195.17	895.36	65.569	-0.29363	0	0.26165	0	0	0	0	0	0	0	15.771	0	0	0	0
0.61855	195.48	894.91	65.48	-0.29362	0	0.26167	0	0	0	0	0	0	0	15.802	0	0	0	0
0.61896	195.71	892.71	65.087	-0.29324	0	0.26156	0	0	0	0	0	0	0	15.766	0	0	0	0
0.61938	195.97	891.73	65.264	-0.2933	0	0.26169	0	0	0	0	0	0	0	15.727	0	0	0	0
0.6198	196.49	891.64	65.105	-0.29324	0	0.26168	0	0	0	0	0	0	0	15.801	0	0	0	0
0.62022	196.67	890.84	64.931	-0.29312	0	0.26173	-21.838	45.907	2.1278	0.25343	0	0.43336	0	15.784	0	0	2.835	0
0.62063	196.51	889.26	64.846	-0.29299	0	0.26178	-18.993	44.95	0.28517	0.24275	0	0.44884	0	15.77	0	0	3.0841	0
0.62105	196.94	887.4	64.514	-0.29276	0	0.26176	-15.044	42.896	-1.2895	0.24847	0	0.46263	0	15.827	0	0	3.1398	0
0.62147	197.57	886.07	64.533	-0.29254	0	0.26167	-13.578	43.686	-1.8141	0.26611	0	0.46219	0	15.809	0	0	2.9268	0
0.62188	197.83	885.36	64.532	-0.2925	0	0.26172	-16.982	47.196	-1.7935	0.28466	0	0.45134	0	15.835	0	0	2.9209	0
0.6223	197.98	884.22	64.553	-0.29237	0	0.26186	-22.692	51.703	-1.5145	0.30172	0	0.44518	0	15.861	0	0	3.2465	0
0.62272	198.48	882.71	64.136	-0.29218	0	0.26177	-26.306	54.835	-1.3461	0.29499	0	0.44702	0	15.865	0	0	3.7262	0
0.62313	198.76	881.73	64.268	-0.29223	0	0.26182	-26.931	53.423	-1.4773	0.27172	0	0.45648	0	15.825	0	0	4.217	0
0.62355	199.04	880.76	64.006	-0.29212	0	0.26195	-25.608	52.12	-2.0848	0.25802	0	0.46382	0	15.834	0	0	4.9958	0
0.62397	199.19	879.35	64.026	-0.29196	0	0.26186	-23.775	54.794	-3.3927	0.24568	0	0.46229	0	15.842	0	0	5.8512	0
0.62438	199.48	878.9	63.786	-0.29195	0	0.26196	-23.274	60.72	-4.1687	0.24348	0	0.46302	0	15.864	0	0	5.899	0
0.6248	199.65	877.05	63.633	-0.29168	0	0.26204	-25.945	70.485	-4.4214	0.25933	0	0.46198	0	15.855	0	0	5.6054	0
0.62522	200.1	876.51	63.76	-0.29168	0	0.26183	-30.991	81.871	-3.7955	0.2653	0	0.45811	0	15.859	0	0	5.3627	0
0.62563	200.25	874.4	63.63	-0.29139	0	0.26192	-35.526	93.699	-3.7933	0.2721	0	0.45309	0	15.854	0	0	5.3139	0
0.62605	200.36	872.63	63.433	-0.29127	0	0.26196	-35.793	102.2	-4.4717	0.27396	0	0.45089	0	15.88	0	0	5.8102	0
0.62647	200.79	871.66	63.256	-0.2911	0	0.26193	-31.514	108.77	-4.6973	0.2659	0	0.45236	0	15.871	0	0	6.2752	0
0.62688	200.7	871.04	62.845	-0.29109	0	0.26203	-24.833	116.04	-3.8682	0.26166	0	0.45538	0	15.836	0	0	6.3208	0
0.6273	201.05	869.89	62.952	-0.29089	0	0.26204	-18.885	125.38	-2.7197	0.25943	0	0.4556	0	15.849	0	0	5.5852	0
0.62772	201.31	868.3	63.019	-0.29087	0	0.26215	-17.219	137.8	-2.2363	0.26352	0	0.45262	0	15.823	0	0	4.2942	0
0.62813	201.68	867.41	62.929	-0.29071	0	0.26212	-18.431	149.58	-2.0502	0.26485	0	0.45148	0	15.849	0	0	3.1023	0
0.62855	201.85	866.44	62.669	-0.29071	0	0.26224	-20.508	160.22	-2.217	0.26649	0	0.45095	0	15.827	0	0	2.5782	0
0.62897	201.98	865.02	62.516	-0.29058	0	0.26223	-20.575	168.28	-2.4658	0.26606	0	0.45248	0	15.835	0	0	2.9571	0
0.62939	202.17	863.7	62.535	-0.29045	0	0.26212	-18.25	175.92	-3.0139	0.26176	0	0.45414	0	15.87	0	0	4.0197	0
0.6298	202.14	862.11	62.123	-0.29029	0	0.26226	-15.278	185.89	-3.2747	0.2618	0	0.45557	0	15.839	0	0	5.1158	0
0.63022	202.51	861.05	61.946	-0.29016	0	0.26222	-13.385	198.89	-3.2399	0.26405	0	0.45402	0	15.847	0	0	5.3945	0
0.63064	202.75	859.46	61.924	-0.29003	0	0.26224	-13.696	213.1	-2.6671	0.26502	0	0.45144	0	15.856	0	0	4.4846	0
0.63105	203.03	858.13	62.097	-0.2899	0	0.26225	-16.042	225.38	-2.1591	0.26333	0	0.45112	0	15.86	0	0	3.146	0
0.63147	203.16	857.07	61.944	-0.28979	0	0.26228	-19.171	236.26	-1.4262	0.26234	0	0.45136	0	15.868	0	0	2.2374	0
0.63189	203.18	855.31	61.618	-0.28955	0	0.26228	-21.881	245.5	-0.83136	0.26211	0	0.45193	0	15.837	0	0	2.6093	0
